<?xml version="1.0" encoding="UTF-8"?>
<!DOCTYPE svg PUBLIC "-//W3C//DTD SVG 1.1//EN" "http://www.w3.org/Graphics/SVG/1.1/DTD/svg11.dtd">
<svg id="cabbage" xmlns="http://www.w3.org/2000/svg">
    <symbol id="icon-emo-devil" viewBox="0 0 1000 1000">
        <path d="M111 0h-5c-1 0-2 0-3 1h-4c-8 2-17 7-24 12-2 1-3 2-5 4-1 1-2 2-4 3-11 11-20 22-28 34l-5 7c-1 2-3 4-4 7-7 12-12 24-17 37-1 3-1 6-2 8s-1 5-2 8c-17 65-5 136 18 188 5 10 10 19 15 28 5 8 11 16 16 23h1c5 6 12 9 20 10 7 1 15-2 21-7 1-1 3-2 4-4 0-1 1-1 1-1l11-15 3-3 2-3 12-14 3-2 2-3c22-24 47-44 74-62 5-4 11-7 16-10s10-6 16-9c0-1 0-1 1-1 7-4 12-10 14-17 2-8 1-16-3-23-2-5-6-8-11-11l-1-1h-1l-3-2c-7-2-13-5-20-8-1 0-2-1-3-2l-3-1-1-1c-5-3-11-6-16-10l-2-2-2-2h-1c-23-19-36-42-40-67 0-4-1-9-1-14s0-10 1-14v-1c2-10 2-18 0-25l-1-5-1-4h-1c-3-8-8-14-14-19l-4-2c-1-1-3-2-4-2-5-2-10-3-15-3zm777 0c-5 0-10 1-14 3-2 0-3 1-4 2-2 1-3 1-4 2-6 5-11 11-15 19l-1 4c-1 2-1 3-1 5-2 7-2 15 0 25v1c0 4 1 9 1 14s-1 10-1 14c-4 25-18 48-40 67h-1l-2 2c-1 1-2 2-3 2-5 4-10 7-15 10-1 0-1 1-1 1l-3 1c-1 1-3 2-4 2-6 3-12 6-19 8l-3 2h-1l-2 1c-4 3-8 6-10 11h-1c-3 7-4 15-2 23 2 7 7 13 14 17 1 0 1 0 1 1 6 3 11 6 16 9s10 6 16 10c27 18 51 38 74 62l2 3 3 2 12 14 2 3 2 3 12 15 1 1c1 2 2 3 4 4 6 5 14 8 21 7s15-4 20-10c6-7 11-15 17-23 5-9 10-18 14-28 23-52 36-123 19-188-1-3-2-6-2-8-1-2-2-5-3-8-4-13-9-25-16-37-2-3-3-5-4-7l-5-7c-8-12-17-23-28-34h-1c-1-1-2-2-4-3-1-2-2-3-4-4-8-5-16-10-24-12h-4c-1-1-2-1-4-1h-5zm-666 388l-1 2c-46 63-46 164 0 227 22 30 53 49 87 49h1c82 0 122-94 122-162v-1c0-6 0-11-1-16-2-1-4-2-7-4l-201-95zm556 0l-202 95c-2 2-4 3-6 4-1 5-1 10-1 16v1c0 68 40 162 122 162 35 0 65-19 87-49 46-63 47-164 0-227h1l-1-2zm21 374c-13 0-27 5-37 15l-2 3c-10 10-20 20-31 29-10 9-22 18-34 26-62 41-135 62-210 58v1c-47-2-93-14-135-33-7-4-14-7-20-10-33-19-64-43-91-72-20-22-53-23-75-3s-23 53-3 75c34 37 74 69 119 93 9 5 17 9 26 13 54 25 113 40 174 42v1c98 4 193-23 273-76 16-10 31-22 45-34s28-25 40-39c20-21 20-54-1-74-10-11-24-16-38-15z" />
    </symbol>
    <symbol id="icon-emo-happy" viewBox="0 0 999 1000">
        <path d="M261 50c-60 0-109 65-109 144 0 80 49 145 109 145s110-65 110-145c0-79-49-144-110-144zm477 0c-61 0-110 65-110 144 0 80 49 145 110 145 60 0 110-65 110-145 0-79-50-144-110-144zm208 599c-13 0-27 5-37 16l-12 12c-111 109-253 164-396 165-142 2-285-50-396-155l-3-3-12-12c-21-21-54-20-75 1-20 21-20 55 1 76 3 4 8 8 14 14l3 3c132 124 301 186 469 184 169-1 337-67 468-195 5-5 9-10 14-14 20-22 20-56-1-77-10-10-23-15-37-15z" />
    </symbol>
    <symbol id="icon-emo-sleep" viewBox="0 0 888 1000">
        <path d="M53 157c-11 0-21 4-30 10-24 17-30 50-13 75 45 63 119 102 196 102 71 0 138-32 183-85 20-22 18-55-4-75s-56-18-76 4l-1 1v1l-1 1-10 10-1 1-1 1c-3 3-7 6-11 9-59 42-143 29-186-32-11-15-28-23-45-23zm485 0c-11 0-21 4-30 10-24 17-30 50-13 75 45 63 119 102 197 102 70 0 137-32 183-85 19-22 17-55-5-75s-56-18-75 4h-1l-1 1v1l-1 1-10 10-1 1v1l-12 9c-59 42-143 29-186-32-11-15-28-23-45-23zm-435 579c-29 0-53 24-53 53 0 30 24 54 53 54h682c30 0 54-24 54-54s-24-53-54-53h-682z" />
    </symbol>
    <symbol id="icon-emo-surprised" viewBox="0 0 696 1000">
        <path d="M110 1c-61 0-110 65-110 144 0 80 49 145 110 145s109-65 109-145c0-79-49-144-109-144zm476 0c-60 0-109 65-109 144 0 80 49 145 109 145 61 0 110-65 110-145 0-79-49-144-110-144zm-255 432c-56 0-107 23-143 59-37 37-60 88-60 144v162c0 56 23 106 59 143 37 37 88 60 144 60h34c56 0 107-23 143-60 37-36 60-87 60-143v-162c0-56-23-107-59-143-37-37-88-60-144-60h-34zm0 107h34c26 0 50 11 67 28 18 18 29 42 29 68v162c0 26-11 50-28 67-18 18-42 29-68 29v-1h-34v1c-26 0-50-11-68-29-17-17-28-41-28-67v-162c0-26 11-50 28-67 18-18 42-29 68-29z" />
    </symbol>
    <symbol id="icon-emo-thumbsup" viewBox="0 0 1447 1000">
        <path d="M744 0c-60 0-109 64-109 143s49 143 109 143 108-64 108-143-48-143-108-143zm-602 80c-29 0-53 24-53 54s24 53 53 53h290c30 0 54-24 54-53s-24-53-54-53l-290-1zm1040 21c-16 0-34 2-54 7-112 51-109 174-93 266h-131c-68 0-124 53-124 123 0 34 8 71 30 98-10 11-18 24-23 38-18 48-10 106 23 144-5 6-18 27-18 27-29 57-10 144 46 179 17 11 38 17 64 17h378c91-3 167-76 167-169v-287c0-49-30-108-49-151-25-58-49-116-73-174-30-72-71-118-143-118zm3 115c30-1 42 48 51 67 21 52 42 129 64 181 21 47 38 88 38 104v255c0 41-36 72-76 74h-332c-17 0-26-9-30-24-5-15-7-34 4-47 6-8 16-13 26-13 21 1 39-17 39-38s-17-37-38-37c-9 0-18-4-24-11-15-16-16-50 0-65 3-4 7-6 12-8 4-1 8-2 12-2 20 0 38-17 38-38s-17-38-38-38c-28 0-34-28-34-50 0-12 7-23 17-29-1-2 189-4 210-4 27 0 47-30 33-55-27-51-45-207 22-221 2-1 4-1 6-1zm-1133 264c-7 0-14 1-20 4-27 12-39 44-27 71 66 148 194 254 344 297 29 8 59 14 90 17 30 3 61 4 91 2h5c30-3 52-28 50-58-2-29-28-51-58-49h-3c-25 2-50 1-74-1-24-3-48-8-72-14-120-34-222-120-276-238-9-20-29-32-50-31z" />
    </symbol>
    <symbol id="icon-emo-unhappy" viewBox="0 0 999 1000">
        <path d="M261 50c-60 0-109 65-109 144 0 80 49 145 109 145s110-65 110-145c0-79-49-144-110-144zm477 0c-61 0-110 65-110 144 0 80 49 145 110 145 60 0 110-65 110-145 0-79-50-144-110-144zm-244 599c-165 0-331 62-461 184l-3 3c-6 5-11 10-14 14-21 21-21 55-1 76 21 21 54 21 75 1l12-12 3-3c111-105 254-157 396-155 143 1 285 56 396 165l12 12c20 21 54 21 74 1 21-21 21-55 1-77-5-5-9-10-14-14-131-129-299-194-468-195h-8z" />
    </symbol>
    <symbol id="icon-emo-wink" viewBox="0 0 999 1000">
        <path d="M261 50c-60 0-109 65-109 144 0 80 49 145 109 145s110-65 110-145c0-79-49-144-110-144zm343 98c-29 0-54 24-54 54s25 54 54 54h267c30 0 54-24 54-54s-24-54-54-54h-267zm342 501c-13 0-27 5-37 16l-12 12c-111 109-253 164-396 165-142 2-285-50-396-155l-3-3-12-12c-21-21-54-20-75 1-20 21-20 55 1 76 3 4 8 8 14 14l3 3c132 124 301 186 469 184 169-1 337-67 468-195 5-5 9-10 14-14 20-22 20-56-1-77-10-10-23-15-37-15z" />
    </symbol>
    <symbol id="icon-emo-wink2" viewBox="0 0 774 1000">
        <path d="M664 50c-61 0-110 65-110 144 0 80 49 145 110 145 60 0 110-65 110-145 0-79-50-144-110-144zm-343 98h-267c-30 0-54 24-54 54s24 54 54 54h267c30 0 54-24 54-54s-24-54-54-54zm-262 361c-6 0-13 1-19 3-27 10-41 41-31 68 46 127 136 228 249 289 22 12 45 22 69 31 58 21 120 33 184 33 57 0 113-9 166-27 10-3 20-7 30-11 11-4 22-8 31-12v-1c26-12 38-44 25-71-13-26-44-37-70-25-9 4-17 8-24 11-8 3-17 6-25 8-43 14-88 22-133 22-51 0-101-10-148-27-19-7-37-15-55-25-90-48-163-130-200-231-8-21-28-35-49-35z" />
    </symbol>
</svg>
